<svg width="57" height="55" viewBox="0 0 57 55" fill="none" xmlns="http://www.w3.org/2000/svg">
<rect width="57" height="55" fill="white"/>
<path d="M41.5 3H4.5C4.22386 3 4 3.22386 4 3.5V30.5C4 30.7761 4.22386 31 4.5 31H14C14.2761 31 14.5 31.2239 14.5 31.5V38.6849C14.5 39.1447 15.0683 39.3607 15.3737 39.0171L22.3508 31.1678C22.4457 31.0611 22.5817 31 22.7245 31H41.5C41.7761 31 42 30.7761 42 30.5V3.5C42 3.22386 41.7761 3 41.5 3Z" fill="#1A4BFA"/>
<path d="M48 38H24C23.7239 38 23.5 38.2239 23.5 38.5V43.5C23.5 43.7761 23.7239 44 24 44H38.7827C38.9213 44 39.0537 44.0575 39.1483 44.1588L45.1345 50.5726C45.4441 50.9044 46 50.6853 46 50.2315V44.5C46 44.2239 46.2239 44 46.5 44H54.5C54.7761 44 55 43.7761 55 43.5V16.5C55 16.2239 54.7761 16 54.5 16H49C48.7239 16 48.5 16.2239 48.5 16.5V37.5C48.5 37.7761 48.2761 38 48 38Z" fill="#1A4BFA"/>
</svg>
