<svg width="78" height="63" viewBox="0 0 78 63" fill="none" xmlns="http://www.w3.org/2000/svg">
<path d="M16 11C16 9.34315 17.3431 8 19 8H64C65.6569 8 67 9.34315 67 11V13H16V11Z" fill="#1A4BFA"/>
<rect x="13" y="14" width="57" height="39" rx="3" fill="#1A4BFA"/>
<path d="M31 36C31 34.8954 31.8954 34 33 34H36C37.1046 34 38 34.8954 38 36V36H31V36Z" fill="white"/>
<ellipse cx="34.5" cy="28" rx="5.5" ry="7" fill="white"/>
<path d="M48 47.5026C48 47.5026 42.232 47.5026 34.5 47.5026C26.768 47.5026 20 47.5026 20 47.5026C20 42.532 26.5004 35 34.2324 35C41.9644 35 48 42.532 48 47.5026Z" fill="white"/>
<path d="M49 23C49 21.8954 49.8954 21 51 21H61C62.1046 21 63 21.8954 63 23V25C63 26.1046 62.1046 27 61 27H51C49.8954 27 49 26.1046 49 25V23Z" fill="white"/>
<rect x="49" y="32" width="14" height="6" rx="2" fill="white"/>
</svg>
