<svg width="59" height="56" viewBox="0 0 59 56" fill="none" xmlns="http://www.w3.org/2000/svg">
<path d="M51.2854 22.015L51.2135 21.7786L50.9764 21.8476L46.8879 23.0368L46.645 23.1074L46.7186 23.3495C47.8862 27.1915 47.7152 31.3042 46.2323 35.0408C44.7493 38.7776 42.038 41.9272 38.5238 43.9933C35.0096 46.0594 30.8923 46.9243 26.8199 46.4512C22.7475 45.9782 18.9522 44.1943 16.0309 41.3812C13.1097 38.5682 11.228 34.8858 10.6808 30.9137C10.1336 26.9417 10.9517 22.904 13.0069 19.4358C15.0622 15.9674 18.2386 13.2647 22.0372 11.7541C25.8358 10.2435 30.0405 10.011 33.9891 11.0935L34.2275 11.1589L34.2956 10.9213L35.4465 6.90343L35.5161 6.66033L35.2722 6.59348C30.3081 5.23264 25.0222 5.52477 20.2462 7.4241C15.47 9.32345 11.4736 12.7227 8.88667 17.0882C6.29969 21.4537 5.26934 26.5375 5.95841 31.5393C6.64747 36.541 9.01666 41.1759 12.692 44.715C16.3672 48.254 21.1401 50.4968 26.2593 51.0914C31.3785 51.686 36.555 50.599 40.9744 48.0007C45.3939 45.4024 48.8062 41.4398 50.6732 36.7354C52.5402 32.031 52.7556 26.8524 51.2854 22.015Z" fill="#1A4BFA" stroke="#1A4BFA" stroke-width="0.5"/>
<mask id="path-2-outside-1_218_25" maskUnits="userSpaceOnUse" x="14" y="14" width="30" height="30" fill="black">
<rect fill="white" x="14" y="14" width="30" height="30"/>
<path d="M42.9521 27.5633C43.1947 30.4245 42.5121 33.2879 41.0007 35.7488C39.4893 38.2098 37.2256 40.1439 34.5294 41.2778C31.8332 42.4118 28.841 42.6881 25.9755 42.0679C23.1101 41.4477 20.5163 39.9622 18.5608 37.8215C16.6053 35.6807 15.3869 32.9929 15.0778 30.1379C14.7688 27.2829 15.3847 24.405 16.8385 21.9111C18.2924 19.4172 20.5106 17.4332 23.1797 16.2397C25.8488 15.0461 28.8339 14.7033 31.713 15.2596L31.2099 17.7513C28.8647 17.2981 26.4332 17.5774 24.2591 18.5496C22.0849 19.5218 20.2781 21.1378 19.0939 23.1693C17.9096 25.2007 17.408 27.5449 17.6597 29.8704C17.9114 32.196 18.9038 34.3853 20.4967 36.1291C22.0896 37.8728 24.2023 39.0828 26.5364 39.588C28.8705 40.0932 31.3078 39.8681 33.504 38.9445C35.7002 38.0209 37.5441 36.4454 38.7752 34.4408C40.0063 32.4362 40.5623 30.1039 40.3647 27.7733L42.9521 27.5633Z"/>
</mask>
<path d="M42.9521 27.5633C43.1947 30.4245 42.5121 33.2879 41.0007 35.7488C39.4893 38.2098 37.2256 40.1439 34.5294 41.2778C31.8332 42.4118 28.841 42.6881 25.9755 42.0679C23.1101 41.4477 20.5163 39.9622 18.5608 37.8215C16.6053 35.6807 15.3869 32.9929 15.0778 30.1379C14.7688 27.2829 15.3847 24.405 16.8385 21.9111C18.2924 19.4172 20.5106 17.4332 23.1797 16.2397C25.8488 15.0461 28.8339 14.7033 31.713 15.2596L31.2099 17.7513C28.8647 17.2981 26.4332 17.5774 24.2591 18.5496C22.0849 19.5218 20.2781 21.1378 19.0939 23.1693C17.9096 25.2007 17.408 27.5449 17.6597 29.8704C17.9114 32.196 18.9038 34.3853 20.4967 36.1291C22.0896 37.8728 24.2023 39.0828 26.5364 39.588C28.8705 40.0932 31.3078 39.8681 33.504 38.9445C35.7002 38.0209 37.5441 36.4454 38.7752 34.4408C40.0063 32.4362 40.5623 30.1039 40.3647 27.7733L42.9521 27.5633Z" fill="#1A4BFA"/>
<path d="M42.9521 27.5633C43.1947 30.4245 42.5121 33.2879 41.0007 35.7488C39.4893 38.2098 37.2256 40.1439 34.5294 41.2778C31.8332 42.4118 28.841 42.6881 25.9755 42.0679C23.1101 41.4477 20.5163 39.9622 18.5608 37.8215C16.6053 35.6807 15.3869 32.9929 15.0778 30.1379C14.7688 27.2829 15.3847 24.405 16.8385 21.9111C18.2924 19.4172 20.5106 17.4332 23.1797 16.2397C25.8488 15.0461 28.8339 14.7033 31.713 15.2596L31.2099 17.7513C28.8647 17.2981 26.4332 17.5774 24.2591 18.5496C22.0849 19.5218 20.2781 21.1378 19.0939 23.1693C17.9096 25.2007 17.408 27.5449 17.6597 29.8704C17.9114 32.196 18.9038 34.3853 20.4967 36.1291C22.0896 37.8728 24.2023 39.0828 26.5364 39.588C28.8705 40.0932 31.3078 39.8681 33.504 38.9445C35.7002 38.0209 37.5441 36.4454 38.7752 34.4408C40.0063 32.4362 40.5623 30.1039 40.3647 27.7733L42.9521 27.5633Z" stroke="#1A4BFA" stroke-width="2" mask="url(#path-2-outside-1_218_25)"/>
<path d="M38.5 16L29.5 24.5L32.5 27L41 18.5H46.5L52.5 12H44.5V4L37.5 10L38.5 16Z" fill="#1A4BFA" stroke="#1A4BFA"/>
<circle cx="29" cy="28.5" r="5" fill="#1A4BFA"/>
</svg>
