<svg width="61" height="51" viewBox="0 0 61 51" fill="none" xmlns="http://www.w3.org/2000/svg">
<path d="M3 5V7C3 7.55228 3.44772 8 4 8H9.20555C9.67072 8 10.0745 8.32075 10.1796 8.77387L16.3204 35.2261C16.4255 35.6792 16.8293 36 17.2944 36H50.6669C51.1496 36 51.5633 35.6553 51.6505 35.1807L55.7831 12.6807C55.896 12.0663 55.4242 11.5 54.7996 11.5H17.1369C16.7483 11.5 16.395 11.275 16.2307 10.9229L13.2693 4.57711C13.105 4.22504 12.7517 4 12.3631 4H4C3.44772 4 3 4.44772 3 5Z" fill="#1A4BFA"/>
<circle cx="23.5" cy="43.5" r="5.5" fill="#1A4BFA"/>
<circle cx="44.5" cy="43.5" r="5.5" fill="#1A4BFA"/>
</svg>
