<svg width="50" height="47" viewBox="0 0 50 47" fill="none" xmlns="http://www.w3.org/2000/svg">
<rect width="50" height="47" fill="white"/>
<rect x="4" y="3" width="43" height="42.0227" rx="3" fill="#1A4BFA"/>
<path d="M38.5 9H12C11.4477 9 11 9.44772 11 10V29C11 29.5523 11.4477 30 12 30H17.5C18.0523 30 18.5 30.4477 18.5 31V36.5C18.5 37.0523 18.9477 37.5 19.5 37.5H31.5C32.0523 37.5 32.5 37.0523 32.5 36.5V30.9311C32.5 30.4065 32.9054 29.971 33.4288 29.9337L38.5712 29.5663C39.0946 29.529 39.5 29.0935 39.5 28.5689V10C39.5 9.44772 39.0523 9 38.5 9Z" fill="white"/>
<path d="M22.2711 21.2711L20.1548 19.1548C19.7853 18.7853 19.1936 18.7626 18.7969 19.1027L16.851 20.7706C16.3975 21.1593 16.3836 21.8562 16.8213 22.2626L22.278 27.3295C22.6785 27.7014 23.3033 27.6829 23.6811 27.288L33.324 17.2068C33.6997 16.8139 33.6928 16.1928 33.3084 15.8084L31.7289 14.2289C31.3299 13.8299 30.6802 13.8398 30.2936 14.2506L23.7064 21.2494C23.3198 21.6602 22.6701 21.6701 22.2711 21.2711Z" fill="#1A4BFA"/>
</svg>
